<svg width="14" height="14" viewBox="0 0 14 14" fill="none" xmlns="http://www.w3.org/2000/svg">
<path d="M6.99968 0.333008C5.68114 0.333008 4.3922 0.724001 3.29588 1.45654C2.19955 2.18909 1.34506 3.23028 0.840481 4.44845C0.335896 5.66663 0.203874 7.00707 0.461109 8.30028C0.718344 9.59348 1.35328 10.7814 2.28563 11.7137C3.21798 12.6461 4.40587 13.281 5.69908 13.5382C6.99228 13.7955 8.33273 13.6635 9.5509 13.1589C10.7691 12.6543 11.8103 11.7998 12.5428 10.7035C13.2754 9.60715 13.6663 8.31822 13.6663 6.99967C13.6663 6.1242 13.4939 5.25729 13.1589 4.44845C12.8238 3.63961 12.3328 2.90469 11.7137 2.28563C11.0947 1.66657 10.3597 1.17551 9.5509 0.840478C8.74206 0.505446 7.87516 0.333008 6.99968 0.333008ZM6.99968 12.333C5.94484 12.333 4.9137 12.0202 4.03664 11.4342C3.15957 10.8481 2.47599 10.0152 2.07232 9.04065C1.66865 8.06611 1.56304 6.99376 1.76882 5.95919C1.97461 4.92463 2.48256 3.97432 3.22844 3.22844C3.97432 2.48256 4.92463 1.97461 5.9592 1.76882C6.99376 1.56303 8.06612 1.66865 9.04066 2.07232C10.0152 2.47598 10.8481 3.15957 11.4342 4.03663C12.0202 4.9137 12.333 5.94484 12.333 6.99967C12.333 8.41416 11.7711 9.77072 10.7709 10.7709C9.77072 11.7711 8.41417 12.333 6.99968 12.333ZM9.66634 6.33301H7.66634V4.33301C7.66634 4.1562 7.59611 3.98663 7.47108 3.8616C7.34606 3.73658 7.17649 3.66634 6.99968 3.66634C6.82287 3.66634 6.6533 3.73658 6.52827 3.8616C6.40325 3.98663 6.33301 4.1562 6.33301 4.33301V6.33301H4.33301C4.1562 6.33301 3.98663 6.40325 3.86161 6.52827C3.73658 6.65329 3.66634 6.82286 3.66634 6.99967C3.66634 7.17649 3.73658 7.34606 3.86161 7.47108C3.98663 7.5961 4.1562 7.66634 4.33301 7.66634H6.33301V9.66634C6.33301 9.84315 6.40325 10.0127 6.52827 10.1377C6.6533 10.2628 6.82287 10.333 6.99968 10.333C7.17649 10.333 7.34606 10.2628 7.47108 10.1377C7.59611 10.0127 7.66634 9.84315 7.66634 9.66634V7.66634H9.66634C9.84316 7.66634 10.0127 7.5961 10.1377 7.47108C10.2628 7.34606 10.333 7.17649 10.333 6.99967C10.333 6.82286 10.2628 6.65329 10.1377 6.52827C10.0127 6.40325 9.84316 6.33301 9.66634 6.33301Z" fill="#056BE7"/>
</svg>
