<svg width="12" height="12" viewBox="0 0 12 12" fill="none" xmlns="http://www.w3.org/2000/svg">
<path d="M6.70497 6.00009L9.85497 2.85509C9.94912 2.76094 10.002 2.63324 10.002 2.50009C10.002 2.36694 9.94912 2.23924 9.85497 2.14509C9.76082 2.05094 9.63312 1.99805 9.49997 1.99805C9.36682 1.99805 9.23912 2.05094 9.14497 2.14509L5.99997 5.29509L2.85497 2.14509C2.76082 2.05094 2.63312 1.99805 2.49997 1.99805C2.36682 1.99805 2.23912 2.05094 2.14497 2.14509C2.05082 2.23924 1.99792 2.36694 1.99792 2.50009C1.99792 2.63324 2.05082 2.76094 2.14497 2.85509L5.29497 6.00009L2.14497 9.14509C2.09811 9.19157 2.06091 9.24687 2.03552 9.3078C2.01014 9.36873 1.99707 9.43409 1.99707 9.50009C1.99707 9.5661 2.01014 9.63145 2.03552 9.69238C2.06091 9.75331 2.09811 9.80861 2.14497 9.85509C2.19145 9.90196 2.24675 9.93915 2.30768 9.96454C2.36861 9.98992 2.43396 10.003 2.49997 10.003C2.56598 10.003 2.63133 9.98992 2.69226 9.96454C2.75319 9.93915 2.80849 9.90196 2.85497 9.85509L5.99997 6.70509L9.14497 9.85509C9.19145 9.90196 9.24675 9.93915 9.30768 9.96454C9.36861 9.98992 9.43396 10.003 9.49997 10.003C9.56598 10.003 9.63133 9.98992 9.69226 9.96454C9.75319 9.93915 9.80849 9.90196 9.85497 9.85509C9.90183 9.80861 9.93903 9.75331 9.96442 9.69238C9.9898 9.63145 10.0029 9.5661 10.0029 9.50009C10.0029 9.43409 9.9898 9.36873 9.96442 9.3078C9.93903 9.24687 9.90183 9.19157 9.85497 9.14509L6.70497 6.00009Z" fill="#2A3646"/>
</svg>
