<svg width="90" height="87" viewBox="0 0 90 87" fill="none" xmlns="http://www.w3.org/2000/svg">
<path d="M41.9299 78.6702C60.1716 78.6702 74.9594 63.8824 74.9594 45.6407C74.9594 27.399 60.1716 12.6112 41.9299 12.6112C23.6882 12.6112 8.90039 27.399 8.90039 45.6407C8.90039 63.8824 23.6882 78.6702 41.9299 78.6702Z" fill="#FFD946"/>
<path d="M41.9303 71.5924C56.263 71.5924 67.882 59.9735 67.882 45.6407C67.882 31.308 56.263 19.689 41.9303 19.689C27.5975 19.689 15.9785 31.308 15.9785 45.6407C15.9785 59.9735 27.5975 71.5924 41.9303 71.5924Z" fill="#F7D23C"/>
<path d="M45.4687 23.2279C40.5491 23.2279 35.7309 24.6261 31.5756 27.2597C27.4203 29.8933 24.0992 33.6537 21.9994 38.1026C19.8996 42.5515 19.1075 47.5056 19.7156 52.3875C20.3237 57.2693 22.3069 61.8777 25.4339 65.6755C30.4129 69.7758 36.7404 71.8751 43.1829 71.564C49.6254 71.253 55.7213 68.554 60.2821 63.9931C64.843 59.4323 67.542 53.3364 67.853 46.8939C68.164 40.4514 66.0648 34.1239 61.9645 29.1449C57.3229 25.3114 51.4886 23.2187 45.4687 23.2279Z" fill="#FFD946"/>
<path d="M55.7637 73.3009L64.6109 83.9175L73.458 73.3009H68.7395V59.4745H60.4822V73.3009H55.7637Z" fill="#FF7260"/>
<path d="M73.4582 73.3009H68.7397V59.4745H62.8415V73.3009H58.123L65.7906 82.5019L73.4582 73.3009Z" fill="#F1503C"/>
<path d="M41.9302 44.4611C40.5303 44.4611 39.1619 44.046 37.998 43.2683C36.834 42.4906 35.9269 41.3852 35.3912 40.0919C34.8555 38.7986 34.7153 37.3756 34.9884 36.0026C35.2615 34.6297 35.9356 33.3685 36.9254 32.3787C37.9153 31.3888 39.1764 30.7147 40.5494 30.4416C41.9223 30.1686 43.3454 30.3087 44.6387 30.8444C45.932 31.3801 47.0374 32.2873 47.8151 33.4512C48.5928 34.6151 49.0079 35.9836 49.0079 37.3834C49.0079 37.6963 49.1322 37.9963 49.3534 38.2175C49.5746 38.4387 49.8747 38.563 50.1875 38.563C50.5004 38.563 50.8004 38.4387 51.0217 38.2175C51.2429 37.9963 51.3672 37.6963 51.3672 37.3834C51.3633 35.0867 50.5229 32.87 49.0031 31.1481C47.4833 29.4262 45.3882 28.3169 43.1098 28.0278V24.4075C43.1098 24.0947 42.9855 23.7946 42.7643 23.5734C42.5431 23.3522 42.243 23.2279 41.9302 23.2279C41.6173 23.2279 41.3173 23.3522 41.096 23.5734C40.8748 23.7946 40.7505 24.0947 40.7505 24.4075V28.0278C38.3803 28.3408 36.2172 29.5418 34.6982 31.3882C33.1793 33.2346 32.4178 35.5886 32.5676 37.9748C32.7174 40.3609 33.7673 42.6013 35.5052 44.2432C37.243 45.8851 39.5394 46.8062 41.9302 46.8204C43.33 46.8204 44.6984 47.2355 45.8623 48.0132C47.0263 48.7909 47.9335 49.8963 48.4691 51.1896C49.0048 52.4829 49.145 53.906 48.8719 55.2789C48.5988 56.6519 47.9247 57.913 46.9349 58.9029C45.945 59.8927 44.6839 60.5668 43.311 60.8399C41.938 61.113 40.5149 60.9728 39.2216 60.4371C37.9283 59.9014 36.8229 58.9943 36.0452 57.8303C35.2675 56.6664 34.8524 55.298 34.8524 53.8981C34.8524 53.5853 34.7281 53.2852 34.5069 53.064C34.2857 52.8428 33.9856 52.7185 33.6728 52.7185C33.3599 52.7185 33.0599 52.8428 32.8387 53.064C32.6174 53.2852 32.4932 53.5853 32.4932 53.8981C32.497 56.1949 33.3374 58.4115 34.8572 60.1334C36.377 61.8554 38.4721 62.9647 40.7505 63.2537V66.874C40.7505 67.1869 40.8748 67.4869 41.096 67.7081C41.3173 67.9294 41.6173 68.0536 41.9302 68.0536C42.243 68.0536 42.5431 67.9294 42.7643 67.7081C42.9855 67.4869 43.1098 67.1869 43.1098 66.874V63.2537C45.4801 62.9407 47.6432 61.7397 49.1621 59.8934C50.681 58.047 51.4425 55.6929 51.2927 53.3068C51.1429 50.9206 50.0931 48.6803 48.3552 47.0383C46.6173 45.3964 44.321 44.4753 41.9302 44.4611Z" fill="#FFEC78"/>
<path d="M41.9302 18.5094C36.5641 18.5094 31.3186 20.1006 26.8568 23.0819C22.3951 26.0631 18.9176 30.3004 16.8641 35.258C14.8106 40.2157 14.2733 45.6709 15.3202 50.9338C16.367 56.1968 18.951 61.0312 22.7454 64.8255C26.5398 68.6199 31.3742 71.2039 36.6371 72.2508C41.9001 73.2977 47.3553 72.7604 52.3129 70.7069C57.2705 68.6534 61.5079 65.1759 64.4891 60.7141C67.4704 56.2524 69.0616 51.0068 69.0616 45.6408C69.0535 38.4476 66.1924 31.5513 61.106 26.465C56.0197 21.3786 49.1234 18.5175 41.9302 18.5094ZM41.9302 70.4129C37.0307 70.4129 32.2413 68.96 28.1676 66.238C24.0938 63.516 20.9187 59.6472 19.0438 55.1206C17.1688 50.5941 16.6782 45.6133 17.6341 40.808C18.5899 36.0026 20.9492 31.5887 24.4137 28.1242C27.8781 24.6598 32.2921 22.3005 37.0974 21.3446C41.9027 20.3888 46.8836 20.8794 51.4101 22.7543C55.9366 24.6293 59.8055 27.8044 62.5275 31.8781C65.2495 35.9519 66.7023 40.7413 66.7023 45.6408C66.6948 52.2084 64.0825 58.505 59.4385 63.149C54.7944 67.7931 48.4979 70.4054 41.9302 70.4129Z" fill="#FFEC78"/>
<path d="M41.9298 11.4316C35.1639 11.4316 28.5499 13.438 22.9243 17.1969C17.2986 20.9559 12.9139 26.2986 10.3247 32.5495C7.73553 38.8004 7.05807 45.6787 8.37804 52.3146C9.698 58.9505 12.9561 65.046 17.7403 69.8303C22.5246 74.6145 28.62 77.8726 35.256 79.1926C41.8919 80.5125 48.7702 79.8351 55.0211 77.2459C61.272 74.6567 66.6147 70.272 70.3737 64.6463C74.1326 59.0207 76.1389 52.4067 76.1389 45.6408C76.129 36.571 72.5216 27.8756 66.1083 21.4623C59.695 15.049 50.9996 11.4416 41.9298 11.4316ZM72.9728 52.7374L71.8605 52.4401C71.7094 52.3952 71.5509 52.381 71.3942 52.3983C71.2376 52.4157 71.086 52.4643 70.9485 52.5412C70.8109 52.6181 70.6902 52.7218 70.5934 52.8461C70.4966 52.9705 70.4257 53.1129 70.3848 53.2652C70.344 53.4174 70.3341 53.5762 70.3557 53.7323C70.3772 53.8884 70.4299 54.0386 70.5105 54.174C70.5911 54.3095 70.698 54.4274 70.8249 54.5208C70.9518 54.6142 71.0961 54.6813 71.2494 54.718L72.3689 55.0188C70.951 59.5946 68.5192 63.7917 65.2546 67.2975L64.4512 66.4942C64.2287 66.2793 63.9308 66.1604 63.6215 66.1631C63.3122 66.1658 63.0163 66.2898 62.7976 66.5085C62.5789 66.7272 62.4548 67.0231 62.4521 67.3324C62.4495 67.6417 62.5684 67.9397 62.7832 68.1622L63.5866 68.9655C62.1266 70.3213 60.5434 71.538 58.8574 72.5999L58.2865 71.6126C58.2096 71.4773 58.1067 71.3586 57.9838 71.2633C57.8608 71.168 57.7202 71.0979 57.5701 71.0572C57.42 71.0164 57.2633 71.0058 57.109 71.0258C56.9547 71.0459 56.8059 71.0962 56.6712 71.174C56.5365 71.2518 56.4185 71.3555 56.324 71.479C56.2295 71.6026 56.1604 71.7437 56.1206 71.8941C56.0808 72.0445 56.0712 72.2013 56.0923 72.3554C56.1134 72.5095 56.1647 72.658 56.2434 72.7922L56.8167 73.7854C55.0566 74.7204 53.2121 75.487 51.3078 76.0751L51.007 74.9556C50.9703 74.8024 50.9033 74.658 50.8099 74.5311C50.7165 74.4042 50.5985 74.2973 50.4631 74.2167C50.3277 74.1361 50.1775 74.0834 50.0214 74.0619C49.8653 74.0403 49.7064 74.0502 49.5542 74.091C49.402 74.1319 49.2595 74.2028 49.1352 74.2996C49.0108 74.3964 48.9072 74.5172 48.8302 74.6547C48.7533 74.7923 48.7048 74.9438 48.6874 75.1004C48.6701 75.2571 48.6843 75.4156 48.7292 75.5667L49.0265 76.679C47.0831 77.1251 45.102 77.3869 43.1095 77.4611V76.311C43.1095 75.9981 42.9852 75.6981 42.764 75.4769C42.5427 75.2557 42.2427 75.1314 41.9298 75.1314C41.617 75.1314 41.3169 75.2557 41.0957 75.4769C40.8745 75.6981 40.7502 75.9981 40.7502 76.311V77.4611C38.7578 77.3885 36.7767 77.1282 34.8332 76.6838L35.1305 75.5714C35.1754 75.4203 35.1896 75.2618 35.1722 75.1052C35.1549 74.9485 35.1063 74.797 35.0294 74.6594C34.9525 74.5219 34.8488 74.4011 34.7245 74.3043C34.6001 74.2075 34.4576 74.1366 34.3054 74.0957C34.1532 74.0549 33.9944 74.045 33.8383 74.0666C33.6822 74.0882 33.532 74.1408 33.3965 74.2214C33.2611 74.302 33.1432 74.4089 33.0498 74.5358C32.9564 74.6627 32.8893 74.8071 32.8526 74.9603L32.5518 76.0798C30.6474 75.4902 28.8029 74.722 27.043 73.7854L27.6163 72.7922C27.6949 72.658 27.7463 72.5095 27.7674 72.3554C27.7885 72.2013 27.7788 72.0445 27.7391 71.8941C27.6993 71.7437 27.6302 71.6026 27.5357 71.479C27.4412 71.3555 27.3232 71.2518 27.1885 71.174C27.0537 71.0962 26.9049 71.0459 26.7507 71.0258C26.5964 71.0058 26.4397 71.0164 26.2896 71.0572C26.1394 71.0979 25.9988 71.168 25.8759 71.2633C25.7529 71.3586 25.65 71.4773 25.5732 71.6126L25.0022 72.5999C23.3163 71.538 21.7331 70.3213 20.2731 68.9655L21.0764 68.1622C21.2913 67.9397 21.4102 67.6417 21.4075 67.3324C21.4048 67.0231 21.2808 66.7272 21.0621 66.5085C20.8433 66.2898 20.5475 66.1658 20.2382 66.1631C19.9289 66.1604 19.6309 66.2793 19.4084 66.4942L18.6051 67.2975C17.2493 65.8375 16.0325 64.2543 14.9707 62.5684L15.958 61.9974C16.0933 61.9205 16.212 61.8177 16.3073 61.6947C16.4026 61.5718 16.4727 61.4312 16.5134 61.281C16.5542 61.1309 16.5648 60.9742 16.5448 60.8199C16.5247 60.6656 16.4744 60.5169 16.3966 60.3821C16.3188 60.2474 16.2151 60.1294 16.0915 60.0349C15.968 59.9404 15.8269 59.8713 15.6765 59.8315C15.5261 59.7918 15.3693 59.7821 15.2152 59.8032C15.0611 59.8243 14.9126 59.8756 14.7784 59.9543L13.7852 60.5276C12.8502 58.7675 12.0836 56.9231 11.4955 55.0188L12.615 54.718C12.7682 54.6813 12.9126 54.6142 13.0395 54.5208C13.1664 54.4274 13.2733 54.3095 13.3539 54.174C13.4345 54.0386 13.4871 53.8884 13.5087 53.7323C13.5303 53.5762 13.5204 53.4174 13.4796 53.2652C13.4387 53.1129 13.3678 52.9705 13.271 52.8461C13.1742 52.7218 13.0534 52.6181 12.9159 52.5412C12.7783 52.4643 12.6268 52.4157 12.4701 52.3983C12.3135 52.381 12.155 52.3952 12.0039 52.4401L10.8915 52.7374C10.4455 50.794 10.1837 48.8129 10.1095 46.8204H11.2596C11.5724 46.8204 11.8725 46.6961 12.0937 46.4749C12.3149 46.2537 12.4392 45.9536 12.4392 45.6408C12.4392 45.3279 12.3149 45.0279 12.0937 44.8066C11.8725 44.5854 11.5724 44.4611 11.2596 44.4611H10.1095C10.1821 42.4688 10.4424 40.4877 10.8868 38.5441L11.9992 38.8414C12.0987 38.8689 12.2015 38.8827 12.3047 38.8827C12.591 38.8828 12.8675 38.7789 13.0828 38.5902C13.2981 38.4015 13.4374 38.1409 13.4748 37.8571C13.5122 37.5733 13.4451 37.2856 13.286 37.0476C13.127 36.8096 12.8868 36.6376 12.6103 36.5635L11.4955 36.2627C12.0851 34.3583 12.8533 32.5138 13.7899 30.7539L14.7831 31.3272C14.9173 31.4059 15.0658 31.4572 15.2199 31.4783C15.3741 31.4994 15.5308 31.4898 15.6812 31.45C15.8316 31.4102 15.9727 31.3411 16.0963 31.2466C16.2198 31.1521 16.3235 31.0341 16.4013 30.8994C16.4791 30.7646 16.5295 30.6159 16.5495 30.4616C16.5696 30.3073 16.5589 30.1506 16.5181 30.0005C16.4774 29.8503 16.4073 29.7098 16.312 29.5868C16.2167 29.4639 16.098 29.361 15.9628 29.2841L14.9754 28.7131C16.0373 27.0272 17.254 25.444 18.6098 23.984L19.4132 24.7874C19.6356 25.0022 19.9336 25.1211 20.2429 25.1184C20.5522 25.1158 20.8481 24.9917 21.0668 24.773C21.2855 24.5543 21.4096 24.2584 21.4122 23.9491C21.4149 23.6398 21.296 23.3418 21.0811 23.1194L20.2778 22.316C21.7363 20.9604 23.3179 19.7437 25.0022 18.6816L25.5732 19.669C25.65 19.8042 25.7529 19.9229 25.8759 20.0182C25.9988 20.1135 26.1394 20.1836 26.2896 20.2243C26.4397 20.2651 26.5964 20.2758 26.7507 20.2557C26.9049 20.2357 27.0537 20.1853 27.1885 20.1075C27.3232 20.0297 27.4412 19.926 27.5357 19.8025C27.6302 19.6789 27.6993 19.5378 27.7391 19.3874C27.7788 19.237 27.7885 19.0803 27.7674 18.9261C27.7463 18.772 27.6949 18.6235 27.6163 18.4893L27.043 17.4961C28.8031 16.5611 30.6475 15.7945 32.5518 15.2064L32.8526 16.3259C32.8893 16.4792 32.9564 16.6235 33.0498 16.7504C33.1432 16.8773 33.2611 16.9842 33.3965 17.0648C33.532 17.1454 33.6822 17.1981 33.8383 17.2197C33.9944 17.2412 34.1532 17.2313 34.3054 17.1905C34.4576 17.1496 34.6001 17.0787 34.7245 16.9819C34.8488 16.8851 34.9525 16.7644 35.0294 16.6268C35.1063 16.4893 35.1549 16.3377 35.1722 16.1811C35.1896 16.0244 35.1754 15.8659 35.1305 15.7149L34.8332 14.6025C36.7766 14.1565 38.7577 13.8946 40.7502 13.8204V14.9705C40.7502 15.2834 40.8745 15.5834 41.0957 15.8046C41.3169 16.0259 41.617 16.1501 41.9298 16.1501C42.2427 16.1501 42.5427 16.0259 42.764 15.8046C42.9852 15.5834 43.1095 15.2834 43.1095 14.9705V13.8204C45.1018 13.893 47.0829 14.1533 49.0265 14.5978L48.7292 15.7101C48.689 15.8598 48.6788 16.0159 48.699 16.1695C48.7192 16.3231 48.7694 16.4712 48.8469 16.6054C48.9243 16.7396 49.0274 16.8572 49.1503 16.9516C49.2732 17.0459 49.4135 17.1151 49.5632 17.1552C49.6629 17.1817 49.7656 17.1952 49.8687 17.1953C50.1282 17.1951 50.3803 17.1093 50.5861 16.9513C50.7919 16.7933 50.9398 16.5718 51.007 16.3212L51.3078 15.2064C53.2123 15.796 55.0568 16.5642 56.8167 17.5008L56.2434 18.4941C56.1647 18.6283 56.1134 18.7767 56.0923 18.9308C56.0712 19.085 56.0808 19.2418 56.1206 19.3922C56.1604 19.5426 56.2295 19.6836 56.324 19.8072C56.4185 19.9308 56.5365 20.0344 56.6712 20.1122C56.8059 20.19 56.9547 20.2404 57.109 20.2604C57.2633 20.2805 57.42 20.2698 57.5701 20.2291C57.7202 20.1883 57.8608 20.1182 57.9838 20.0229C58.1067 19.9276 58.2096 19.8089 58.2865 19.6737L58.8574 18.6863C60.5434 19.7482 62.1266 20.9649 63.5866 22.3208L62.7832 23.1241C62.6706 23.2329 62.5807 23.3631 62.5189 23.507C62.4571 23.6509 62.4245 23.8057 62.4232 23.9623C62.4218 24.1189 62.4516 24.2743 62.511 24.4193C62.5703 24.5642 62.6579 24.6959 62.7686 24.8067C62.8794 24.9174 63.0111 25.005 63.1561 25.0644C63.301 25.1237 63.4564 25.1535 63.613 25.1522C63.7696 25.1508 63.9244 25.1182 64.0683 25.0564C64.2122 24.9946 64.3424 24.9047 64.4512 24.7921L65.2546 23.9887C66.6104 25.4487 67.8271 27.032 68.889 28.7179L67.9016 29.2888C67.7664 29.3657 67.6477 29.4686 67.5524 29.5915C67.4571 29.7145 67.387 29.8551 67.3462 30.0052C67.3055 30.1553 67.2948 30.312 67.3149 30.4663C67.3349 30.6206 67.3853 30.7694 67.4631 30.9041C67.5409 31.0388 67.6445 31.1568 67.7681 31.2513C67.8917 31.3458 68.0327 31.4149 68.1832 31.4547C68.3336 31.4945 68.4903 31.5041 68.6445 31.483C68.7986 31.4619 68.947 31.4106 69.0813 31.3319L70.0745 30.7586C71.0092 32.5172 71.7758 34.3601 72.3642 36.2627L71.2447 36.5635C70.9682 36.6376 70.728 36.8096 70.5689 37.0476C70.4099 37.2856 70.3428 37.5733 70.3801 37.8571C70.4175 38.1409 70.5569 38.4015 70.7721 38.5902C70.9874 38.7789 71.2639 38.8828 71.5502 38.8827C71.6535 38.8828 71.7562 38.8689 71.8557 38.8414L72.9681 38.5441C73.4141 40.4875 73.676 42.4686 73.7502 44.4611H72.6001C72.2872 44.4611 71.9872 44.5854 71.766 44.8066C71.5447 45.0279 71.4204 45.3279 71.4204 45.6408C71.4204 45.9536 71.5447 46.2537 71.766 46.4749C71.9872 46.6961 72.2872 46.8204 72.6001 46.8204H73.7502C73.6775 48.8128 73.4173 50.7938 72.9728 52.7374Z" fill="#FFEC78"/>
<path d="M62.6274 0.278809C63.6454 3.93812 64.6634 7.59752 65.6815 11.2568C64.6635 15.8122 63.6455 20.3676 62.6274 24.923C55.9806 24.923 49.3338 24.923 42.687 24.923C39.9639 24.923 37.748 22.7072 37.748 19.984V5.21775C37.748 2.49463 39.9639 0.278809 42.687 0.278809H62.6274Z" fill="#FF4D4D"/>
<path d="M87.5063 5.21775V19.984C87.5063 22.7072 85.2905 24.923 82.5674 24.923H62.627V0.278809H82.5674C85.2905 0.278809 87.5063 2.49463 87.5063 5.21775Z" fill="#E62E2E"/>
<path d="M43.012 10.159V10.3777C43.012 10.8 43.0748 11.1217 43.2005 11.3429C43.3262 11.559 43.4971 11.6671 43.7133 11.6671C43.9244 11.6671 44.0928 11.559 44.2184 11.3429C44.3441 11.1217 44.407 10.8 44.407 10.3777V10.159C44.407 9.73176 44.3441 9.41256 44.2184 9.20143C44.0928 8.98528 43.9244 8.8772 43.7133 8.8772C43.4971 8.8772 43.3262 8.98528 43.2005 9.20143C43.0748 9.41256 43.012 9.73176 43.012 10.159ZM41.5869 10.4154V10.1213C41.5869 9.4025 41.7779 8.81939 42.16 8.37201C42.542 7.92462 43.0648 7.70093 43.7283 7.70093C44.3919 7.70093 44.9096 7.92211 45.2816 8.36447C45.6536 8.80682 45.8396 9.39245 45.8396 10.1213V10.4154C45.8396 11.1091 45.6511 11.6872 45.2741 12.1497C44.8971 12.6121 44.3693 12.8434 43.6906 12.8434C43.0321 12.8434 42.5169 12.6197 42.1449 12.1723C41.7729 11.7249 41.5869 11.1393 41.5869 10.4154ZM49.4815 15.7313V15.9499C49.4815 16.3772 49.5444 16.7014 49.67 16.9226C49.8007 17.1388 49.9716 17.2468 50.1828 17.2468C50.3939 17.2468 50.5623 17.1388 50.688 16.9226C50.8187 16.7014 50.884 16.3772 50.884 15.9499V15.7313C50.884 15.304 50.8212 14.9848 50.6955 14.7736C50.5698 14.5575 50.3989 14.4494 50.1828 14.4494C49.9666 14.4494 49.7957 14.5575 49.67 14.7736C49.5444 14.9848 49.4815 15.304 49.4815 15.7313ZM48.0564 15.9876V15.6936C48.0564 14.9747 48.2474 14.3916 48.6295 13.9442C49.0165 13.4968 49.5418 13.2731 50.2054 13.2731C50.8689 13.2731 51.3842 13.4943 51.7511 13.9367C52.1231 14.379 52.3091 14.9647 52.3091 15.6936V15.9876C52.3091 16.6813 52.1206 17.2619 51.7436 17.7294C51.3666 18.1919 50.8413 18.4231 50.1677 18.4231C49.5092 18.4231 48.9914 18.1994 48.6144 17.752C48.2424 17.2996 48.0564 16.7115 48.0564 15.9876ZM42.831 17.4881L46.5333 12.7227L50.032 8.1458C50.1476 7.98997 50.2707 7.89949 50.4014 7.87435C50.5371 7.84419 50.6653 7.85927 50.786 7.91959C50.9116 7.94975 51.0122 8.01008 51.0876 8.10056C51.163 8.19104 51.2032 8.29912 51.2082 8.42479C51.2183 8.58564 51.1554 8.75153 51.0197 8.92244L47.5286 13.4315L43.8188 18.2723C43.7032 18.4281 43.575 18.5161 43.4343 18.5362C43.2985 18.5613 43.1729 18.5463 43.0573 18.491C42.9517 18.4658 42.8587 18.408 42.7783 18.3175C42.6978 18.2321 42.6551 18.1341 42.6501 18.0235C42.6451 17.938 42.6576 17.8501 42.6878 17.7596C42.7179 17.6691 42.7657 17.5786 42.831 17.4881Z" fill="black" fill-opacity="0.2"/>
<path d="M58.5147 12.5191V13.8613C58.5147 14.4796 58.6077 15.0099 58.7937 15.4523C58.9847 15.8896 59.2536 16.2264 59.6005 16.4627C59.9524 16.6939 60.3696 16.8095 60.8522 16.8095C61.3398 16.8095 61.757 16.6939 62.1038 16.4627C62.4507 16.2264 62.7171 15.8896 62.9031 15.4523C63.0941 15.0099 63.1896 14.4796 63.1896 13.8613V12.5191C63.1896 11.8908 63.0941 11.3529 62.9031 10.9055C62.7171 10.4581 62.4482 10.1138 62.0963 9.87251C61.7494 9.63122 61.3347 9.51058 60.8522 9.51058C60.3696 9.51058 59.9524 9.63122 59.6005 9.87251C59.2536 10.1138 58.9847 10.4581 58.7937 10.9055C58.6077 11.3529 58.5147 11.8908 58.5147 12.5191ZM56.4788 13.8688V12.5267C56.4788 11.5464 56.6523 10.7044 56.9991 10.0007C57.351 9.29694 57.8537 8.75656 58.5072 8.37955C59.1606 7.99751 59.9423 7.80649 60.8522 7.80649C61.767 7.80649 62.5512 7.99751 63.2047 8.37955C63.8582 8.75656 64.3584 9.29945 64.7052 10.0082C65.0521 10.712 65.2255 11.5515 65.2255 12.5267V13.8688C65.2255 14.834 65.0521 15.6634 64.7052 16.3571C64.3584 17.0508 63.8582 17.5836 63.2047 17.9556C62.5512 18.3276 61.767 18.5136 60.8522 18.5136C59.4748 18.5136 58.4016 18.1014 57.6325 17.277C56.8634 16.4526 56.4788 15.3165 56.4788 13.8688Z" fill="black" fill-opacity="0.2"/>
<path d="M68.0681 18.3703C67.7414 18.3703 67.4876 18.2723 67.3066 18.0763C67.1256 17.8802 67.0351 17.6113 67.0351 17.2695V9.30699C67.0351 8.86966 67.1457 8.54292 67.3669 8.32676C67.5931 8.11061 67.9349 8.00253 68.3924 8.00253H72.8637C73.1201 8.00253 73.3287 8.08045 73.4896 8.23628C73.6504 8.39211 73.7308 8.5957 73.7308 8.84704C73.7308 9.09838 73.6504 9.30197 73.4896 9.4578C73.3287 9.6086 73.1201 9.684 72.8637 9.684H69.071V12.5568H72.4792C72.7406 12.5568 72.9492 12.6322 73.105 12.783C73.2659 12.9288 73.3463 13.1274 73.3463 13.3787C73.3463 13.625 73.2659 13.8236 73.105 13.9744C72.9492 14.1252 72.7406 14.2006 72.4792 14.2006H69.071V17.2695C69.071 17.6163 68.983 17.8878 68.8071 18.0838C68.6362 18.2748 68.3899 18.3703 68.0681 18.3703Z" fill="black" fill-opacity="0.2"/>
<path d="M76.1362 18.3703C75.8094 18.3703 75.5556 18.2723 75.3746 18.0763C75.1936 17.8802 75.1032 17.6113 75.1032 17.2695V9.30699C75.1032 8.86966 75.2138 8.54292 75.4349 8.32676C75.6611 8.11061 76.003 8.00253 76.4604 8.00253H80.9318C81.1881 8.00253 81.3967 8.08045 81.5576 8.23628C81.7184 8.39211 81.7989 8.5957 81.7989 8.84704C81.7989 9.09838 81.7184 9.30197 81.5576 9.4578C81.3967 9.6086 81.1881 9.684 80.9318 9.684H77.139V12.5568H80.5472C80.8086 12.5568 81.0172 12.6322 81.173 12.783C81.3339 12.9288 81.4143 13.1274 81.4143 13.3787C81.4143 13.625 81.3339 13.8236 81.173 13.9744C81.0172 14.1252 80.8086 14.2006 80.5472 14.2006H77.139V17.2695C77.139 17.6163 77.0511 17.8878 76.8751 18.0838C76.7042 18.2748 76.4579 18.3703 76.1362 18.3703Z" fill="black" fill-opacity="0.2"/>
<path d="M43.8699 9.30113V9.51979C43.8699 9.94205 43.9328 10.2638 44.0584 10.4849C44.1841 10.7011 44.355 10.8092 44.5712 10.8092C44.7823 10.8092 44.9507 10.7011 45.0764 10.4849C45.202 10.2638 45.2649 9.94205 45.2649 9.51979V9.30113C45.2649 8.87385 45.202 8.55465 45.0764 8.34352C44.9507 8.12737 44.7823 8.01929 44.5712 8.01929C44.355 8.01929 44.1841 8.12737 44.0584 8.34352C43.9328 8.55465 43.8699 8.87385 43.8699 9.30113ZM42.4448 9.55749V9.26343C42.4448 8.54459 42.6358 7.96148 43.0179 7.5141C43.3999 7.06671 43.9227 6.84302 44.5862 6.84302C45.2498 6.84302 45.7675 7.0642 46.1395 7.50656C46.5115 7.94892 46.6975 8.53454 46.6975 9.26343V9.55749C46.6975 10.2512 46.509 10.8293 46.132 11.2917C45.755 11.7542 45.2272 11.9854 44.5485 11.9854C43.89 11.9854 43.3748 11.7618 43.0028 11.3144C42.6308 10.867 42.4448 10.2814 42.4448 9.55749ZM50.3394 14.8733V15.092C50.3394 15.5193 50.4023 15.8435 50.5279 16.0647C50.6586 16.2809 50.8295 16.3889 51.0407 16.3889C51.2518 16.3889 51.4202 16.2809 51.5459 16.0647C51.6766 15.8435 51.7419 15.5193 51.7419 15.092V14.8733C51.7419 14.4461 51.6791 14.1269 51.5534 13.9157C51.4277 13.6996 51.2568 13.5915 51.0407 13.5915C50.8245 13.5915 50.6536 13.6996 50.5279 13.9157C50.4023 14.1269 50.3394 14.4461 50.3394 14.8733ZM48.9143 15.1297V14.8356C48.9143 14.1168 49.1053 13.5337 49.4874 13.0863C49.8744 12.6389 50.3997 12.4152 51.0633 12.4152C51.7268 12.4152 52.2421 12.6364 52.609 13.0788C52.981 13.5211 53.167 14.1068 53.167 14.8356V15.1297C53.167 15.8234 52.9785 16.404 52.6015 16.8715C52.2245 17.334 51.6992 17.5652 51.0256 17.5652C50.3671 17.5652 49.8493 17.3415 49.4723 16.8941C49.1003 16.4417 48.9143 15.8536 48.9143 15.1297ZM43.689 16.6302L47.3912 11.8648L50.8899 7.28789C51.0055 7.13206 51.1286 7.04158 51.2593 7.01644C51.3951 6.98628 51.5232 7.00136 51.6439 7.06168C51.7696 7.09184 51.8701 7.15217 51.9455 7.24265C52.0209 7.33313 52.0611 7.44121 52.0661 7.56688C52.0762 7.72774 52.0134 7.89362 51.8776 8.06453L48.3865 12.5736L44.6767 17.4144C44.5611 17.5702 44.4329 17.6582 44.2922 17.6783C44.1565 17.7034 44.0308 17.6884 43.9152 17.6331C43.8096 17.6079 43.7166 17.5501 43.6362 17.4596C43.5557 17.3742 43.513 17.2762 43.508 17.1656C43.503 17.0801 43.5155 16.9921 43.5457 16.9017C43.5759 16.8112 43.6236 16.7207 43.689 16.6302Z" fill="white"/>
<path d="M59.3726 11.6612V13.0034C59.3726 13.6217 59.4656 14.152 59.6516 14.5944C59.8426 15.0317 60.1115 15.3685 60.4584 15.6047C60.8103 15.836 61.2275 15.9516 61.7101 15.9516C62.1977 15.9516 62.6149 15.836 62.9617 15.6047C63.3086 15.3685 63.575 15.0317 63.761 14.5944C63.952 14.152 64.0475 13.6217 64.0475 13.0034V11.6612C64.0475 11.0329 63.952 10.495 63.761 10.0476C63.575 9.60022 63.3061 9.25589 62.9542 9.0146C62.6074 8.77331 62.1926 8.65267 61.7101 8.65267C61.2275 8.65267 60.8103 8.77331 60.4584 9.0146C60.1115 9.25589 59.8426 9.60022 59.6516 10.0476C59.4656 10.495 59.3726 11.0329 59.3726 11.6612ZM57.3367 13.0109V11.6688C57.3367 10.6885 57.5102 9.84654 57.857 9.14278C58.2089 8.43903 58.7116 7.89865 59.3651 7.52164C60.0185 7.1396 60.8002 6.94858 61.7101 6.94858C62.625 6.94858 63.4091 7.1396 64.0626 7.52164C64.7161 7.89865 65.2163 8.44154 65.5631 9.15032C65.91 9.85408 66.0834 10.6936 66.0834 11.6688V13.0109C66.0834 13.9761 65.91 14.8055 65.5631 15.4992C65.2163 16.1929 64.7161 16.7257 64.0626 17.0977C63.4091 17.4697 62.625 17.6557 61.7101 17.6557C60.3327 17.6557 59.2595 17.2435 58.4904 16.4191C57.7213 15.5947 57.3367 14.4586 57.3367 13.0109Z" fill="white"/>
<path d="M68.9261 17.5124C68.5993 17.5124 68.3455 17.4144 68.1645 17.2184C67.9835 17.0223 67.893 16.7534 67.893 16.4115V8.44908C67.893 8.01175 68.0036 7.68501 68.2248 7.46886C68.451 7.2527 68.7928 7.14463 69.2503 7.14463H73.7216C73.978 7.14463 74.1866 7.22254 74.3475 7.37837C74.5083 7.5342 74.5888 7.73779 74.5888 7.98913C74.5888 8.24047 74.5083 8.44406 74.3475 8.59989C74.1866 8.75069 73.978 8.82609 73.7216 8.82609H69.9289V11.6989H73.3371C73.5985 11.6989 73.8071 11.7743 73.9629 11.9251C74.1238 12.0709 74.2042 12.2695 74.2042 12.5208C74.2042 12.7671 74.1238 12.9657 73.9629 13.1165C73.8071 13.2673 73.5985 13.3427 73.3371 13.3427H69.9289V16.4115C69.9289 16.7584 69.8409 17.0298 69.665 17.2259C69.4941 17.4169 69.2478 17.5124 68.9261 17.5124Z" fill="white"/>
<path d="M76.9941 17.5124C76.6673 17.5124 76.4135 17.4144 76.2325 17.2184C76.0516 17.0223 75.9611 16.7534 75.9611 16.4115V8.44908C75.9611 8.01175 76.0717 7.68501 76.2928 7.46886C76.5191 7.2527 76.8609 7.14463 77.3183 7.14463H81.7897C82.046 7.14463 82.2546 7.22254 82.4155 7.37837C82.5764 7.5342 82.6568 7.73779 82.6568 7.98913C82.6568 8.24047 82.5764 8.44406 82.4155 8.59989C82.2546 8.75069 82.046 8.82609 81.7897 8.82609H77.9969V11.6989H81.4051C81.6665 11.6989 81.8751 11.7743 82.0309 11.9251C82.1918 12.0709 82.2722 12.2695 82.2722 12.5208C82.2722 12.7671 82.1918 12.9657 82.0309 13.1165C81.8751 13.2673 81.6665 13.3427 81.4051 13.3427H77.9969V16.4115C77.9969 16.7584 77.909 17.0298 77.733 17.2259C77.5621 17.4169 77.3158 17.5124 76.9941 17.5124Z" fill="white"/>
<path d="M10.2718 15.2301L7.39575 11.3686C6.70396 10.4398 6.89904 9.10619 7.82771 8.4144C8.75652 7.72247 10.0903 7.91755 10.7821 8.84637L13.6583 12.7079C14.3501 13.6367 14.155 14.9703 13.2263 15.6621C12.2974 16.3539 10.9638 16.1589 10.2718 15.2301Z" fill="#FFBB33"/>
<path d="M6.2221 22.5519L1.5396 21.2367C0.424576 20.9235 -0.235263 19.7483 0.0779071 18.6332C0.391077 17.5182 1.56635 16.8582 2.68151 17.1714L7.36401 18.4866C8.47903 18.7997 9.13887 19.975 8.8257 21.09C8.51239 22.2052 7.33712 22.865 6.2221 22.5519Z" fill="#FFBB33"/>
<path d="M7.82775 79.6426C6.89894 78.9508 6.704 77.6172 7.39579 76.6884L10.272 72.8269C10.964 71.8979 12.2976 71.703 13.2264 72.3949C14.1552 73.0867 14.3501 74.4203 13.6583 75.3491L10.7821 79.2106C10.0903 80.1396 8.75657 80.3345 7.82775 79.6426Z" fill="#FFBB33"/>
<path d="M0.0779071 69.4238C-0.235263 68.3088 0.424576 67.1335 1.5396 66.8204L6.2221 65.5052C7.34515 65.1896 8.51028 65.8444 8.8257 66.967C9.14098 68.0896 8.48649 69.2552 7.36401 69.5705L2.68151 70.8857C1.56635 71.1988 0.391077 70.5388 0.0779071 69.4238Z" fill="#FFBB33"/>
<path d="M82.0284 74.5951C82.8907 73.8089 82.9475 72.462 82.1543 71.6114L78.8565 68.0753C78.0632 67.2246 76.7009 67.1718 75.8386 67.9581C74.9763 68.7444 74.9196 70.0913 75.7128 70.9418L79.0105 74.478C79.8037 75.3287 81.1662 75.3815 82.0284 74.5951Z" fill="#FFBB33"/>
<path d="M88.7584 63.6129C88.957 62.4709 88.1702 61.3718 87.0155 61.1783L82.1664 60.3655C81.0034 60.1705 79.8995 60.9449 79.6994 62.0947C79.4995 63.2445 80.2799 64.3345 81.4423 64.5293L86.2914 65.3421C87.4463 65.5356 88.5599 64.755 88.7584 63.6129Z" fill="#FFBB33"/>
</svg>
