<svg width="6" height="10" viewBox="0 0 6 10" fill="none" xmlns="http://www.w3.org/2000/svg">
<path d="M5.35841 4.40874L1.82507 0.875405C1.74761 0.797298 1.65544 0.735302 1.55389 0.692995C1.45234 0.650688 1.34342 0.628906 1.23341 0.628906C1.1234 0.628906 1.01448 0.650688 0.912927 0.692995C0.811378 0.735302 0.71921 0.797298 0.641741 0.875405C0.486532 1.03154 0.399414 1.24275 0.399414 1.4629C0.399414 1.68306 0.486532 1.89427 0.641741 2.0504L3.59174 5.00041L0.641741 7.95041C0.486532 8.10654 0.399414 8.31775 0.399414 8.53791C0.399414 8.75806 0.486532 8.96927 0.641741 9.12541C0.719608 9.20264 0.811955 9.26374 0.913486 9.30521C1.01502 9.34669 1.12374 9.36771 1.23341 9.36707C1.34308 9.36771 1.4518 9.34669 1.55333 9.30521C1.65486 9.26374 1.74721 9.20264 1.82507 9.12541L5.35841 5.59207C5.43651 5.5146 5.49851 5.42244 5.54082 5.32089C5.58312 5.21934 5.60491 5.11041 5.60491 5.00041C5.60491 4.8904 5.58312 4.78147 5.54082 4.67992C5.49851 4.57838 5.43651 4.48621 5.35841 4.40874Z" fill="#555E6B"/>
</svg>
